<svg width="800" height="600" xmlns="http://www.w3.org/2000/svg">

 <g>
  <title>Layer 1</title>
  <g>
   <path fill="#ffffff" d="m389.45532,243.33874c-0.33,0.11 -2.1,0.68 -3.96,1.29c-10,3.27 -17.08,7.06 -18.84,10.06c-0.67,1.15 -0.8,2.08 -0.4,3.01c0.44,1.05 1.25,1.84 3.47,3.41c1.04,0.73 2.81,2.26 3.96,3.41c5.5,5.49 8.17,12.22 7.87,19.83c-0.34,8.56 -4.35,17.12 -12.03,25.69c-2.68,2.99 -5.43,5.48 -10.71,9.71c-4.4,3.52 -6.79,5.8 -8.42,8.01c-4.99,6.8 -3.66,12.86 3.96,17.92c6.72,4.47 18.56,8.19 32.51,10.21c4.68,0.68 9.97,1.11 11.24,0.92l0.89,-0.13l1.4,-2.52c7.08,-12.75 10.66,-24.77 11.09,-37.21c0.19,-5.55 -0.51,-12.12 -1.7,-15.96c-0.22,-0.69 -0.38,-1.28 -0.35,-1.3c0.02,-0.02 2,-0.61 4.4,-1.33c12.61,-3.76 24.81,-6.72 34.89,-8.47c1.96,-0.34 3.64,-0.69 3.73,-0.78c0.54,-0.53 -1.03,-2.98 -3.58,-5.61c-9.43,-9.73 -26.09,-17.14 -45.64,-20.29c-3.77,-0.61 -4.23,-0.83 -5.63,-2.68c-2.22,-2.94 -4.31,-7.97 -7.16,-17.17c-0.09,-0.28 -0.18,-0.28 -0.99,-0.02zm1.3,3.46c1.1,2.99 1.77,5.34 1.77,6.17l0,0.65l-0.93,-0.11c-5.04,-0.58 -13.08,-1.83 -14.79,-2.29c-0.44,-0.12 -0.69,-0.29 -0.61,-0.42c0.13,-0.21 1.84,-1.03 6.92,-3.34c4.74,-2.15 6.54,-2.95 6.68,-2.96c0.06,0 0.49,1.03 0.96,2.3zm-10.66,6.31c6.15,1.29 10.63,2.1 11.62,2.1c0.96,0 0.85,0.08 -3.67,2.84c-3.49,2.12 -3.89,2.32 -4.77,2.32l-0.96,0l-2.58,-2.62c-3.13,-3.17 -5.25,-5.49 -5.25,-5.75c0,-0.11 0.06,-0.14 0.15,-0.09c0.08,0.04 2.55,0.59 5.46,1.2zm-4.54,2.91c1.51,1.76 2.68,3.24 2.62,3.31c-0.13,0.13 -4.44,-0.94 -7.08,-1.75c-2.3,-0.71 -2.58,-0.95 -1.97,-1.73c0.4,-0.52 3.37,-3 3.59,-3.01c0.06,-0.01 1.33,1.41 2.84,3.18zm19.62,3.65c0.6,1.43 1.06,2.59 1.04,2.61c-0.03,0.02 -8.11,-1.23 -8.82,-1.37c-0.15,-0.03 1.22,-0.96 3.06,-2.08s3.41,-1.97 3.49,-1.88c0.08,0.07 0.63,1.29 1.23,2.72zm-17.62,2.71c0.16,0.16 2.09,6.36 2,6.44c-0.03,0.03 -0.95,-1.03 -2.04,-2.38c-1.1,-1.35 -2.75,-3.24 -3.7,-4.23l-1.71,-1.79l2.67,0.92c1.46,0.51 2.72,0.98 2.78,1.04zm7.72,0.83c3.35,0.48 6.13,0.91 6.18,0.96c0.04,0.05 -1.98,1.62 -4.5,3.5c-2.52,1.87 -4.6,3.38 -4.63,3.35c-0.03,-0.03 -0.28,-0.81 -0.56,-1.74c-0.28,-0.93 -1,-2.86 -1.59,-4.31c-0.59,-1.45 -1.05,-2.63 -1.03,-2.63c0.02,0 2.78,0.4 6.13,0.87zm8.42,2.68c0.74,1.73 1.03,3.39 1.15,6.7c0.06,1.78 0.07,3.23 0.01,3.23c-0.06,0 -1.12,-0.37 -2.35,-0.81c-2.46,-0.89 -7.28,-2.48 -7.85,-2.59c-0.25,-0.05 0.91,-1.16 3.96,-3.79c2.38,-2.05 4.4,-3.72 4.49,-3.72c0.1,0.01 0.36,0.45 0.59,0.98zm8.64,0.42c3.71,0.76 6.95,1.44 7.21,1.5c0.37,0.09 -0.52,0.65 -4.44,2.8c-2.7,1.48 -5.76,3.16 -6.8,3.75c-1.05,0.59 -1.91,1.04 -1.93,1.02c-0.02,-0.02 0.09,-0.57 0.24,-1.23c0.56,-2.4 0.21,-5.4 -0.91,-7.79c-0.33,-0.69 -0.6,-1.3 -0.6,-1.35c0,-0.17 0.67,-0.05 7.23,1.3zm10.11,4.53c-0.19,0.84 -0.6,2.27 -0.93,3.2c-0.71,2.04 -3.3,7.33 -3.65,7.47c-0.14,0.06 -1.36,-0.51 -2.69,-1.25c-1.33,-0.74 -3.26,-1.72 -4.27,-2.17l-1.84,-0.82l6.79,-4.35c5.63,-3.61 6.8,-4.29 6.86,-3.97c0.04,0.2 -0.08,1.05 -0.27,1.89zm4.96,-1.55c7.04,2.02 14.47,4.75 14.04,5.16c-0.09,0.08 -1.01,0.39 -2.04,0.68c-5.31,1.51 -12.7,4.06 -16.16,5.58c-1.07,0.47 -2,0.82 -2.05,0.77c-0.05,-0.05 0.37,-1.61 0.94,-3.45c1.11,-3.63 2.4,-8.53 2.4,-9.16c0,-0.28 0.1,-0.37 0.35,-0.3c0.18,0.05 1.31,0.37 2.52,0.72zm-30.27,7.3c1.61,0.53 3.48,1.24 4.17,1.59c1.25,0.63 1.26,0.64 0.9,1.03c-0.64,0.71 -7.63,7.22 -7.83,7.29c-0.1,0.04 -0.18,-0.95 -0.18,-2.38c-0.01,-2.48 -0.29,-6.95 -0.5,-7.95c-0.16,-0.73 -0.03,-0.72 3.44,0.42zm44.7,1.29c-1.54,2.54 -4.07,6.16 -5.9,8.44c-1.87,2.34 -5.82,6.74 -6.05,6.74c-0.09,0 -0.66,-0.71 -1.27,-1.59c-2.25,-3.21 -4.86,-5.99 -7.15,-7.61c-0.22,-0.15 -0.35,-0.32 -0.3,-0.37c0.05,-0.05 3.81,-1.43 8.33,-3.07c9.16,-3.32 13.19,-4.67 13.44,-4.49c0.02,0.03 -0.47,0.9 -1.1,1.95zm5.73,-0.43c6.32,4.41 10.62,7.98 12.18,10.11c0.39,0.54 0.68,1 0.64,1.03c-0.04,0.03 -2.07,0.26 -4.53,0.5c-9.81,0.97 -16.8,1.95 -20.5,2.89c-0.99,0.25 -1.82,0.44 -1.83,0.43c-0.02,-0.02 0.63,-0.82 1.46,-1.81c4.28,-5.13 8.14,-10.47 9.58,-13.24c0.38,-0.73 0.75,-1.33 0.83,-1.33c0.07,-0.01 1.04,0.63 2.17,1.42zm-35.43,5.47c1.21,0.65 2.14,1.25 2.09,1.35c-0.09,0.18 -10.76,6.02 -10.85,5.94c-0.02,-0.02 0.53,-1.77 1.23,-3.91s1.38,-4.46 1.51,-5.17l0.24,-1.3l1.8,0.96c1,0.53 2.77,1.48 3.98,2.13zm-8.93,0.34c-1.03,3.57 -3.12,8.17 -4.07,8.97c-0.22,0.18 -0.65,-0.07 -2.06,-1.21c-0.99,-0.8 -2,-1.59 -2.27,-1.77c-0.26,-0.18 -0.45,-0.37 -0.41,-0.42c0.73,-0.73 9.23,-7.58 9.27,-7.47c0.03,0.07 -0.18,0.93 -0.46,1.9zm19.32,6.21c1.61,1.07 5.17,4.26 4.98,4.46c-0.05,0.05 -3.67,1.23 -8.03,2.6c-4.36,1.38 -9.22,2.94 -10.8,3.47c-1.59,0.53 -2.89,0.95 -2.9,0.93c-0.02,-0.02 1.09,-1.28 2.46,-2.81c3.57,-3.98 7.24,-8.25 8.54,-9.93l1.12,-1.45l1.47,0.79c0.79,0.44 2.23,1.32 3.16,1.94zm-8.26,-2.29c-0.1,0.13 -1.06,1.35 -2.14,2.72c-1.08,1.36 -3.66,4.68 -5.76,7.37l-3.81,4.9l-0.13,-0.83c-0.24,-1.61 -1.1,-4.74 -1.59,-5.81l-0.49,-1.07l2.42,-1.21c2.5,-1.25 7.71,-4.08 10.15,-5.5c1.54,-0.9 1.64,-0.94 1.35,-0.57zm-20.21,5.92c0.99,0.51 1.92,1.17 1.92,1.38c0,0.32 -6.45,5.3 -6.62,5.11c-0.04,-0.04 0.54,-1.19 1.29,-2.56c0.76,-1.37 1.52,-2.9 1.7,-3.42c0.18,-0.52 0.46,-0.94 0.6,-0.94c0.16,0 0.66,0.2 1.11,0.43zm5.5,6.13c0.45,0.87 0.91,3.32 0.67,3.54c-0.1,0.09 -2.76,1.35 -5.93,2.8c-3.17,1.45 -7.28,3.4 -9.17,4.34c-1.88,0.94 -3.31,1.6 -3.17,1.48c0.14,-0.13 2.21,-1.86 4.61,-3.86c4.64,-3.86 9.93,-8.47 10.9,-9.49l0.58,-0.61l0.57,0.55c0.32,0.3 0.74,0.86 0.94,1.25zm-5.21,-0.05c-0.46,0.41 -2.94,2.58 -5.5,4.8c-2.56,2.21 -5.64,4.89 -6.84,5.94c-2.42,2.11 -2.42,2.11 0.67,-1.92c2.39,-3.12 3.64,-4.28 7.07,-6.58c1.67,-1.12 4.99,-2.99 5.31,-2.99c0.07,-0.01 -0.25,0.34 -0.71,0.75zm24.03,2.12c0.13,0.65 0.28,2.69 0.35,4.51l0.12,3.32l-0.77,-0.36c-2.66,-1.23 -10.13,-5.44 -9.85,-5.55c1.63,-0.65 9.7,-3.33 9.79,-3.24c0.07,0.07 0.23,0.66 0.36,1.32zm-6.34,5.94c3.11,1.83 5.68,3.35 5.72,3.38c0.04,0.03 -0.37,0.37 -0.88,0.75c-0.99,0.73 -11.54,6.18 -11.68,6.04c-0.04,-0.04 0.1,-0.95 0.31,-2c0.43,-2.12 0.82,-8.44 0.63,-10.45c-0.06,-0.71 -0.04,-1.21 0.06,-1.15c0.11,0.06 2.73,1.6 5.84,3.43zm-8.6,-1.34c0.24,1.97 -0.05,5.93 -0.58,7.99c-0.63,2.42 -0.99,3.43 -1.26,3.52c-0.37,0.13 -2.67,-1.97 -4.08,-3.72c-1.42,-1.76 -3.28,-5.08 -3,-5.35c0.17,-0.16 8.39,-3.55 8.64,-3.56c0.08,-0.01 0.21,0.5 0.28,1.12zm-10.08,4.95c0.87,1.8 2.86,4.4 5.04,6.6c1.4,1.41 1.75,1.87 1.53,2.01c-0.98,0.66 -5.35,2.71 -8.11,3.79c-3.35,1.32 -7.7,2.82 -7.8,2.7c-0.04,-0.04 0.96,-1.86 2.22,-4.04c2.73,-4.74 6.18,-11.44 6.18,-11.99c0,-0.7 0.29,-0.42 0.94,0.93zm-5.16,0.11c-0.05,0.14 -0.47,1.18 -0.92,2.33c-1.94,4.92 -5.71,11.6 -6.55,11.6c-0.65,0 -1.61,-3.89 -1.88,-7.63l-0.14,-1.88l4.61,-2.33c2.54,-1.28 4.69,-2.33 4.8,-2.33c0.09,-0.01 0.13,0.1 0.08,0.24zm30.78,4.55c0.02,2.83 -1.17,9.68 -1.8,10.37c-0.26,0.29 -3.19,-0.79 -5.82,-2.15c-2.36,-1.22 -6.24,-3.63 -6.24,-3.87c0,-0.07 0.59,-0.37 1.33,-0.68c1.4,-0.59 7.91,-4.07 10.67,-5.7l1.59,-0.94l0.14,0.72c0.05,0.39 0.12,1.42 0.13,2.25zm-43.43,3.27c0.27,2.24 0.96,4.98 1.82,7.16c0.35,0.89 0.6,1.66 0.56,1.7c-0.34,0.31 -14.19,4.12 -16.02,4.41l-0.87,0.14l0.13,-0.67c0.19,-0.95 1.53,-3.69 2.53,-5.17c1.24,-1.84 4.31,-4.92 6.34,-6.35c1.51,-1.07 5.15,-3.19 5.26,-3.07c0.01,0.01 0.13,0.84 0.25,1.85zm31.42,4.72c4.28,2.05 5.9,2.76 7.95,3.47l1.57,0.54l-0.99,0.5c-5.61,2.84 -15.53,6.89 -18.1,7.39c-0.57,0.11 -0.65,0.08 -0.54,-0.2c0.44,-1.15 6.36,-13.38 6.47,-13.38c0.07,-0.01 1.72,0.76 3.64,1.68zm-7.53,-0.46c-0.3,1.44 -1.93,6.11 -2.88,8.23c-0.82,1.84 -2.72,5.43 -3.06,5.77c-0.15,0.15 -3.53,-1.76 -5.13,-2.9c-1.8,-1.28 -5.74,-5.08 -5.63,-5.43c0.04,-0.13 2.44,-1.05 5.33,-2.05c6.09,-2.1 9.5,-3.37 10.49,-3.88c0.96,-0.5 1.04,-0.47 0.88,0.26zm17.03,6.45c-0.06,0.42 -0.4,2.26 -0.77,4.12c-1.16,5.83 -2.57,9.81 -3.47,9.81c-1.24,0 -9.73,-2.06 -12.47,-3.03c-1.86,-0.66 -3.47,-1.41 -4,-1.88c-0.33,-0.29 -0.16,-0.39 2.28,-1.39c7.85,-3.2 16.9,-7.28 17.88,-8.06c0.57,-0.45 0.66,-0.39 0.55,0.43zm-39.72,1.78c-0.89,1.59 -2.72,4.22 -6.2,8.92l-2.97,4l-0.89,-0.64c-1.25,-0.89 -3.23,-3.05 -4.06,-4.42c-0.89,-1.47 -1.5,-3.28 -1.57,-4.66l-0.06,-1.07l1.47,-0.15c1.99,-0.2 7.55,-1.35 11.52,-2.39c1.8,-0.47 3.3,-0.83 3.34,-0.8c0.03,0.04 -0.23,0.58 -0.58,1.21zm8.63,4.11c0.99,0.71 2.35,1.61 3.05,2.02l1.27,0.74l-0.57,0.24c-0.32,0.13 -4.93,1.81 -10.26,3.74c-9.1,3.29 -9.7,3.48 -9.95,3.14c-0.15,-0.2 -0.25,-0.41 -0.23,-0.48c0.02,-0.07 2.48,-3.24 5.47,-7.07l5.43,-6.95l2,1.67c1.12,0.93 2.8,2.24 3.79,2.95zm2.24,10.45c-1.99,2.97 -3.67,5.48 -3.73,5.56c-0.15,0.2 -3.33,-0.55 -5.71,-1.34c-2.5,-0.84 -5.58,-2.4 -6.78,-3.43l-0.87,-0.75l1.96,-0.53c8.03,-2.19 18.65,-5 18.7,-4.96c0.04,0.01 -1.58,2.48 -3.57,5.45zm9.56,-4.5c4.25,1.46 8.13,2.29 13.16,2.83l1.39,0.15l-3.75,1.35c-9.36,3.38 -16.94,5.75 -20.76,6.49c-1.07,0.21 -2.05,0.38 -2.16,0.38c-0.11,0 0.66,-1.05 1.71,-2.32c2.86,-3.49 5.96,-7.46 6.78,-8.68c0.4,-0.59 0.8,-1.09 0.89,-1.09c0.09,0.01 1.31,0.4 2.74,0.89zm13.95,7.88c-1.61,4.16 -2.79,6.69 -3.21,6.85c-0.8,0.31 -11.85,-1.32 -15.22,-2.23c-2.24,-0.61 -3.67,-1.2 -3.25,-1.35c0.16,-0.06 1.76,-0.43 3.57,-0.84c5.85,-1.32 14.77,-4.03 18.46,-5.61c0.48,-0.2 0.9,-0.35 0.93,-0.32c0.02,0.03 -0.55,1.6 -1.28,3.5z"/>
  </g>
 </g>
</svg>